# xmcd CD database file
#
# Track frame offsets:
#	150
#	19264
#	35166
#	51808
#	70661
#	90996
#	108006
#	126052
#	141062
#	156602
#
# Disc length: 2331 seconds
#
# Revision: 0
# Processed by: cddbd v1.5.1PL0 Copyright (c) Steve Scherf et al.
# Submitted via: CDex 1.51
#
DISCID=8109190a
DTITLE=Trupiada - Boizinho Barrica
DYEAR=2002
DGENRE=Folklore Nacional
TTITLE0=A ilha-Boizinho Barrica
TTITLE1=Mina de luz-Boizinho Barrica
TTITLE2=Festa-Boizinho Barrica
TTITLE3=Gaiola de ouro-Boizinho Barrica
TTITLE4=Luinha-Boizinho Barrica
TTITLE5=Estrela boieira-Boizinho Barrica
TTITLE6=Adorada estrela-Boizinho Barrica
TTITLE7=O mar-Boizinho Barrica
TTITLE8=Touro errante-Boizinho Barrica
TTITLE9=Cururupu-Boizinho Barrica
EXTD=YEAR: 2002
EXTT0=
EXTT1=
EXTT2=
EXTT3=
EXTT4=
EXTT5=
EXTT6=
EXTT7=
EXTT8=
EXTT9=
PLAYORDER=
